# xmcd
#
# Track frame offsets:
#	150
#	17565
#	32125
#	48640
#	64560
#	79920
#	103190
#	121485
#	137990
#	153755
#	167715
#	186680
#	204510
#	219530
#	239080
#	256755
#
# Disc length: 3678 seconds
#
# Revision: 1
# Processed by: cddbd v1.5.2PL0 Copyright (c) Steve Scherf et al.
# Submitted via: audiograbber 1.83.01
#
DISCID=ea0e5c10
DTITLE=Lucky Star Karaoke - Todays Country Hits Volume 1
DYEAR=1900
DGENRE=
TTITLE0=Carrie Underwood - Jesus take the wheel
TTITLE1=Gretchen Wilson - When It Rains
TTITLE2=Gretchen Wilson - One Bud Wiser
TTITLE3=Josh Turner - What It Ain't
TTITLE4=Julie Roberts - Wake Up Older
TTITLE5=Kenny Chesney and Uncle Kracker - When The Sun Goes Down
TTITLE6=Tim McGraw - How Bad Do You Want It
TTITLE7=Toby Keith - Honky Tonk U
TTITLE8=Blake Shelton - Some Beach
TTITLE9=Amy Dalley - Men Don't Change
TTITLE10=Gary Allen - Best I ever Had
TTITLE11=Lee Ann Womak - Twenty Years And Two Husbands Ago
TTITLE12=Montgomery Gentry - If You Ever Stop Loving Me
TTITLE13=Trace Adkins - Honky Tonk Badonkadonk
TTITLE14=Neal McCoy - Billy's Got His Beer Goggles On
TTITLE15=Little Big Town - Boondocks
EXTD=
EXTT0=
EXTT1=
EXTT2=
EXTT3=
EXTT4=
EXTT5=
EXTT6=
EXTT7=
EXTT8=
EXTT9=
EXTT10=
EXTT11=
EXTT12=
EXTT13=
EXTT14=
EXTT15=
PLAYORDER=
